<svg xmlns="http://www.w3.org/2000/svg" version="1.1" xmlns:xlink="http://www.w3.org/1999/xlink" viewBox="0 0 500 500" xml:space="preserve" xmlns:serif="http://www.serif.com/" style="fill-rule:evenodd;clip-rule:evenodd;stroke-linecap:round;stroke-linejoin:round;stroke-miterlimit:1.5;" width="500" height="500"><metadata><rdf:RDF xmlns:rdf="http://www.w3.org/1999/02/22-rdf-syntax-ns#" xmlns:dc="http://purl.org/dc/elements/1.1/"><rdf:Description><dc:creator>RealFaviconGenerator</dc:creator><dc:source>https://realfavicongenerator.net</dc:source></rdf:Description></rdf:RDF></metadata><g transform="matrix(4.166667,0,0,4.166667,0,0)">
        <rect x="0" y="0" width="120" height="120" style="fill:rgb(245,240,232);stroke:rgb(235,235,235);stroke-width:0.24px;"></rect>
        <path d="M16.052,13.2C18.283,13.286 21.217,13.373 24.855,13.459C28.493,13.545 32.127,13.589 35.757,13.589C39.976,13.589 44.021,13.546 47.893,13.459C51.765,13.373 54.504,13.329 56.111,13.329C64.201,13.329 70.895,14.22 76.193,16.001C81.491,17.781 85.453,20.352 88.079,23.715C90.707,27.076 92.021,31.134 92.021,35.887C92.021,38.843 91.425,41.817 90.232,44.808C89.04,47.798 87,50.55 84.113,53.064C81.227,55.578 77.282,57.601 72.277,59.131C67.274,60.661 60.934,61.426 53.258,61.426L40.813,61.426L40.813,58.833L51.962,58.833C57.061,58.833 60.946,57.861 63.617,55.916C66.288,53.971 68.103,51.379 69.062,48.138C70.021,44.897 70.5,41.289 70.5,37.313C70.5,30.485 69.294,25.192 66.882,21.432C64.472,17.672 60.319,15.793 54.424,15.793C51.071,15.793 48.893,16.528 47.889,17.997C46.887,19.466 46.386,22.448 46.386,26.942L46.386,91.243C46.386,94.354 46.632,96.688 47.125,98.244C47.618,99.8 48.556,100.837 49.939,101.355C51.322,101.874 53.379,102.219 56.109,102.392L56.109,104.985C53.811,104.812 50.885,104.704 47.332,104.661C43.78,104.618 40.181,104.596 36.533,104.596C32.385,104.596 28.491,104.618 24.853,104.661C21.215,104.704 18.281,104.812 16.05,104.985L16.05,102.392C18.833,102.219 20.916,101.873 22.299,101.355C23.682,100.836 24.606,99.799 25.072,98.244C25.539,96.688 25.773,94.355 25.773,91.243L25.773,26.942C25.773,23.744 25.539,21.389 25.072,19.877C24.606,18.365 23.669,17.327 22.26,16.766C20.852,16.204 18.781,15.88 16.049,15.794L16.049,13.201L16.052,13.2ZM40.554,59.222C44.288,59.344 47.52,59.525 50.251,59.767C52.983,60.009 55.386,60.229 57.46,60.427C59.534,60.626 61.375,60.803 62.982,60.96C70.847,61.599 76.677,63.258 80.471,65.937C84.266,68.616 86.716,72.635 87.822,77.994L90.751,91.373C91.511,94.813 92.332,97.232 93.214,98.633C94.096,100.033 95.358,100.716 97,100.681C98.106,100.647 99.039,100.38 99.799,99.879C100.561,99.377 101.347,98.65 102.159,97.699L103.948,99.281C101.614,101.96 99.112,103.883 96.441,105.05C93.771,106.217 90.535,106.8 86.732,106.8C82.083,106.8 78.237,105.811 75.194,103.832C72.152,101.852 70.155,98.174 69.204,92.798L66.897,79.834C66.274,76.222 65.531,73.041 64.667,70.293C63.803,67.544 62.627,65.378 61.14,63.797C59.655,62.216 57.546,61.425 54.814,61.425L40.813,61.425L40.554,59.221L40.554,59.222Z" style="fill:rgb(200,75,31);fill-rule:nonzero;"></path>
    </g></svg>